PathFileType	4	(X/Y/Z)	C:\Users\Basilio\Documents\Thesis Gigler\squatting_fais\c3dfiles\044\SLS_back_pre3\markers_experimental.trc
DataRate	CameraRate	NumFrames	NumMarkers	Units	OrigDataRate	OrigDataStartFrame	OrigNumFrames
200.000000	200.000000	4	61	mm	200.000000	526	1405
Frame#	Time	FHD			LBHD			RBHD			C7			T10			LSHO			LUUPA			LMUPA			LDUPA			LLEP			LMEP			LUL			LRFIN			RSHO			RUPA1			RMUPA			RDUPA			RLEP			RMEP			RUL			LASI			RASI			USACR			LSACR			RSACR			LTHI1			LTHI2			LTHI3			LTHI4			LLFC			LMFC			LTIB1			LTIB2			LTIB3			LTIB4			LLMAL			LMMAL			LHEE			LMT1			LMT2			LMT5			RTHI			RTHI2			RTHI3			RTHI4			RLFC			RMFC			RTIB1			RTIB2			RTIB3			RTIB4			RLMAL			RHEE			RMT1			RMT2			RMT5			RMMAL			RUFIN			LRAD			*59			*60			
		X1	Y1	Z1	X2	Y2	Z2	X3	Y3	Z3	X4	Y4	Z4	X5	Y5	Z5	X6	Y6	Z6	X7	Y7	Z7	X8	Y8	Z8	X9	Y9	Z9	X10	Y10	Z10	X11	Y11	Z11	X12	Y12	Z12	X13	Y13	Z13	X14	Y14	Z14	X15	Y15	Z15	X16	Y16	Z16	X17	Y17	Z17	X18	Y18	Z18	X19	Y19	Z19	X20	Y20	Z20	X21	Y21	Z21	X22	Y22	Z22	X23	Y23	Z23	X24	Y24	Z24	X25	Y25	Z25	X26	Y26	Z26	X27	Y27	Z27	X28	Y28	Z28	X29	Y29	Z29	X30	Y30	Z30	X31	Y31	Z31	X32	Y32	Z32	X33	Y33	Z33	X34	Y34	Z34	X35	Y35	Z35	X36	Y36	Z36	X37	Y37	Z37	X38	Y38	Z38	X39	Y39	Z39	X40	Y40	Z40	X41	Y41	Z41	X42	Y42	Z42	X43	Y43	Z43	X44	Y44	Z44	X45	Y45	Z45	X46	Y46	Z46	X47	Y47	Z47	X48	Y48	Z48	X49	Y49	Z49	X50	Y50	Z50	X51	Y51	Z51	X52	Y52	Z52	X53	Y53	Z53	X54	Y54	Z54	X55	Y55	Z55	X56	Y56	Z56	X57	Y57	Z57	X58	Y58	Z58	X59	Y59	Z59	X60	Y60	Z60	X61	Y61	Z61	

527	2.63	-129.9514770507813	1664.4482421875	-998.6968994140627	-260.9377441406251	1629.716552734375	-1081.545532226563	-308.6603088378907	1607.59765625	-924.095397949219	-323.4301147460938	1450.288940429688	-1015.173156738281	-391.4569091796876	1162.019653320313	-1003.052612304688	-227.3803863525391	1461.22021484375	-1157.846435546875	-81.9369354248047	1447.463623046875	-1280.395263671875	-46.2890968322754	1456.348266601563	-1244.147705078125	-12.77474308013916	1444.738525390625	-1294.057006835938	47.61617279052735	1445.9814453125	-1291.54296875	43.98962020874024	1367.638793945313	-1283.201293945313	297.5976867675782	1470.963500976563	-1157.169555664063	306.6306152343751	1486.77099609375	-1054.001953125	-239.0664825439454	1451.658081054688	-862.1582031250002	-85.11270904541017	1435.890014648438	-768.464782714844	-57.69747543334962	1449.659912109375	-808.974548339844	-15.26181888580323	1436.182739257813	-767.6552124023439	45.16810607910157	1441.112670898438	-779.7720336914065	44.90060806274415	1360.75830078125	-791.3196411132815	299.9840087890626	1466.004638671875	-901.3657836914065	-279.3534851074219	937.4470825195315	-1091.11376953125	-283.5150451660157	918.7615356445315	-877.2949829101565	-431.6446228027345	1021.257507324219	-980.1949462890627	-446.8901672363282	991.8536376953127	-1007.304748535156	-443.1910400390626	992.506042480469	-950.3533325195315	-292.8190612792969	725.3130493164064	-1164.460693359375	-224.8485870361329	674.9853515625001	-1157.290893554688	-185.8217010498047	698.9819946289064	-1144.755859375	-222.6893463134766	615.5609741210939	-1141.7890625	-146.0288238525391	488.7348632812501	-1108.573364257813	-150.4747467041016	493.6824035644532	-989.5788574218752	-175.3095397949219	324.4780273437501	-1015.388732910156	-213.0828552246094	282.2175292968751	-1083.820922851563	-185.6202392578125	273.9731445312501	-1044.08203125	-231.2324829101563	211.9239349365235	-1008.82861328125	-320.5251770019532	118.0836639404297	-1055.114624023438	-300.4496765136719	127.4714889526367	-966.9647216796877	-387.7063598632814	95.3500442504883	-1006.890625	-180.983871459961	57.08239364624025	-981.5053710937502	-178.2876281738282	64.96480560302736	-1027.743530273438	-213.8207092285157	53.87849807739259	-1076.20703125	-361.1669616699219	651.5112915039064	-811.1480102539065	-311.4099731445313	605.3068237304689	-814.5133056640627	-280.3106384277344	611.0591430664064	-822.143005371094	-325.9019165039063	523.1311035156251	-832.5683593750002	-339.3560180664063	444.0895996093751	-853.644714355469	-343.2267761230469	441.0859985351564	-969.456237792969	-430.2792358398439	354.8041076660157	-883.9021606445315	-523.7845458984376	405.1599426269532	-853.117126464844	-515.4982299804689	360.7924499511719	-864.1057739257815	-558.1560668945314	333.6827087402344	-892.8174438476565	-725.2574462890626	351.0273742675782	-897.197204589844	-768.1633911132815	391.6189270019532	-957.1074829101565	-724.8084716796876	187.0326385498047	-957.511657714844	-732.0805053710939	178.7810363769532	-919.3103027343752	-771.7039184570315	213.3121643066407	-877.4463500976565	-701.2212524414064	327.3100891113282	-977.5837402343752	297.5432434082032	1452.702758789063	-1016.502868652344	282.6984863281251	1421.249877929688	-1108.744140625	nan	nan	nan	nan	nan	nan	
528	2.635	-129.2921905517578	1663.833618164063	-998.3828735351565	-259.7262573242188	1629.381103515625	-1081.153686523438	-308.3668518066407	1607.058837890625	-923.8010864257815	-323.1335144042969	1449.761962890625	-1014.824951171875	-391.4968872070314	1161.611450195313	-1003.176208496094	-226.9597167968751	1460.852294921875	-1157.501098632813	-81.57054901123048	1447.0693359375	-1280.130615234375	-45.95360183715821	1455.94384765625	-1243.799682617188	-12.45320415496827	1444.3056640625	-1293.718383789063	47.85050201416016	1445.674072265625	-1291.178588867188	44.36809921264649	1367.181396484375	-1282.832153320313	297.8624267578126	1470.457275390625	-1156.75	306.9080505371094	1486.364013671875	-1053.616943359375	-238.7820739746094	1450.9384765625	-861.844665527344	-84.76013183593751	1435.19580078125	-768.1824340820315	-57.40077209472658	1449.221313476563	-808.8928833007815	-15.09327030181885	1435.591430664063	-767.3950195312501	45.46270370483399	1440.690551757813	-779.5921020507815	45.13721466064454	1360.330932617188	-791.2090454101565	300.3042907714844	1465.631591796875	-900.9810180664065	-279.6494445800782	936.9022216796877	-1091.309692382813	-283.8024291992188	918.2689208984377	-877.4747314453127	-431.9344177246095	1020.689819335938	-980.397644042969	-447.0357055664064	991.2387695312502	-1007.559997558594	-443.400604248047	992.0300292968752	-950.6064453125002	-292.8824768066407	724.7826538085939	-1164.473510742188	-224.6497955322266	674.6566772460939	-1157.355346679688	-185.6561584472657	698.7095947265626	-1144.739013671875	-222.8638000488282	615.2608032226564	-1141.243286132813	-145.7960357666016	488.6068420410157	-1108.405639648438	-150.2926025390625	493.5769653320314	-989.4065551757815	-175.2109527587891	324.4736022949219	-1015.254028320313	-212.7505187988282	282.0953979492188	-1083.674438476563	-185.5123748779297	273.6438293457032	-1043.892944335938	-231.0969543457032	211.9150390625001	-1008.695617675781	-320.4196472167969	118.0616683959961	-1055.142700195313	-300.4253234863282	127.3981475830078	-966.9158325195315	-387.6780090332032	95.37863922119142	-1006.727478027344	-181.0783233642578	57.334774017334	-981.353698730469	-178.2836151123047	64.95008087158205	-1027.719482421875	-213.9523620605469	53.65147399902345	-1076.04296875	-361.6273803710938	650.9738769531251	-811.5222167968752	-311.4037475585938	604.4305419921876	-814.3714599609377	-280.7448730468751	610.2200927734376	-822.1038208007815	-326.1269226074219	522.6229858398439	-833.1458740234377	-339.7199096679688	443.6260070800782	-854.2861328125002	-342.8901367187501	440.8005371093751	-970.0689086914065	-430.5729980468751	354.3904418945313	-884.334411621094	-524.0105590820314	404.6363220214845	-854.0144653320315	-515.5903930664064	360.2783508300782	-865.4617309570315	-558.1400756835939	333.2321472167969	-893.8450927734377	-725.5073242187501	351.0764160156251	-898.6685791015627	-768.1453247070315	391.2698669433595	-958.5068969726565	-725.2399291992189	186.8270568847657	-958.7390136718752	-732.3756713867189	178.5852661132813	-920.8286743164065	-771.9025878906252	213.0780029296876	-878.7973632812502	-701.5668945312501	327.6871337890626	-978.522888183594	297.8949890136719	1452.205688476563	-1016.201965332031	283.1405334472657	1420.8583984375	-1108.460571289063	nan	nan	nan	nan	nan	nan	
529	2.64	-128.9552612304688	1663.13134765625	-998.0556640625002	-260.1232604980469	1628.3310546875	-1080.763061523438	-308.1410217285157	1606.587646484375	-923.360046386719	-322.8044433593751	1449.271240234375	-1014.600708007813	-391.5687255859376	1161.277954101563	-1003.413940429688	-226.6155700683594	1460.254272460938	-1157.175659179688	-80.86904144287111	1446.718017578125	-1280.015014648438	-45.6476173400879	1455.564086914063	-1243.444458007813	-12.37286567687989	1443.873657226563	-1293.27197265625	48.31504821777345	1445.304565429688	-1290.809326171875	44.40621948242188	1366.807006835938	-1282.500854492188	298.1910400390626	1469.926879882813	-1156.333251953125	307.1806335449219	1486.180908203125	-1053.457397460938	-238.7800750732422	1450.556030273438	-861.7182617187502	-84.77194213867189	1434.772094726563	-768.508483886719	-57.27804565429689	1448.564575195313	-808.533630371094	-14.74609756469727	1434.80908203125	-767.0907592773439	45.59211349487305	1440.024291992188	-779.3026123046877	45.55991744995118	1359.41357421875	-791.1494750976565	300.6341552734376	1465.233642578125	-900.7005615234377	-279.9150695800782	936.2207031250002	-1091.579223632813	-284.0134887695313	917.8006591796877	-877.6984863281252	-432.0884399414064	1020.232482910156	-980.6512451171877	-447.1534118652345	990.9010009765627	-1007.834289550781	-443.5511779785157	991.3316650390627	-950.8612060546877	-292.7225646972657	724.3391113281251	-1164.676635742188	-224.3766632080079	674.4571533203126	-1157.402709960938	-186.2975463867188	698.9716796875001	-1144.6708984375	-222.2440338134766	614.8991699218751	-1141.829833984375	-145.2081756591797	488.352020263672	-1108.292358398438	-150.1958618164063	493.6166076660157	-989.1436767578127	-175.1439514160157	324.4895935058594	-1015.012512207031	-212.6058349609376	281.9892883300782	-1083.4990234375	-185.3280792236328	273.6588745117188	-1043.772827148438	-231.0190429687501	211.9323883056641	-1008.652465820313	-320.4258422851563	118.0471878051758	-1055.08447265625	-300.4693908691407	127.4417266845703	-966.9034423828127	-387.7072143554689	95.36526489257814	-1006.725341796875	-181.1422882080078	57.27397537231447	-981.2598876953127	-178.3056793212891	64.79492187500001	-1027.594360351563	-214.0166473388672	53.50204467773439	-1075.940063476563	-361.9270629882813	650.5376586914064	-811.7705078125002	-311.9016723632813	603.8609619140626	-814.530700683594	-280.8280944824219	609.7064819335939	-822.5291748046877	-326.2559509277344	521.9052734375001	-833.4522094726565	-339.9843139648438	443.0479125976564	-854.8160400390627	-342.9584045410157	440.3531188964845	-970.7149047851565	-430.5818176269532	353.9324645996094	-885.498718261719	-524.1834106445314	404.4692687988282	-855.2702636718752	-515.7258911132814	359.7686462402344	-866.3914184570315	-558.2219848632814	333.0402832031251	-895.2060546875002	-725.7549438476564	350.7218017578126	-899.9190063476565	-768.1375732421877	391.1258850097657	-959.8305664062502	-725.2310180664064	186.6905059814453	-960.1927490234377	-732.8223266601564	178.4178161621094	-922.1406250000002	-772.100524902344	212.9726715087891	-880.279968261719	-701.7622070312501	327.0596618652344	-980.1862792968752	298.2302856445313	1451.682250976563	-1015.891967773438	283.5947875976563	1420.40087890625	-1108.17578125	nan	nan	nan	nan	nan	nan	
530	2.645	-128.6208953857422	1662.421630859375	-997.6265869140627	-259.5547485351563	1627.832153320313	-1080.313110351563	-307.6062622070313	1605.78662109375	-922.8865966796877	-322.6081237792969	1448.729248046875	-1014.331481933594	-391.559783935547	1160.840454101563	-1003.547912597656	-226.3727111816407	1459.606323242188	-1156.833251953125	-80.24938964843751	1446.620971679688	-1279.374145507813	-45.3655014038086	1455.227416992188	-1243.125854492188	-11.69919967651367	1443.881958007813	-1292.380249023438	48.61116790771486	1444.988159179688	-1290.5556640625	44.61883926391602	1366.3544921875	-1282.142944335938	298.6000671386719	1469.689331054688	-1156.14990234375	307.4716796875001	1485.815551757813	-1053.345947265625	-238.5734405517579	1449.932983398438	-861.3778076171877	-84.57228088378908	1433.7197265625	-768.4125976562502	-56.76437377929689	1447.633178710938	-807.943542480469	-14.53809356689453	1434.192504882813	-766.8963623046876	45.87309265136719	1439.311645507813	-779.032897949219	45.64737701416016	1358.971923828125	-790.9593505859377	300.8510131835938	1464.758056640625	-900.3673095703127	-280.3898620605469	936.0024414062502	-1091.710815429688	-284.3711242675782	916.9856567382815	-877.8118896484377	-432.1249389648439	1019.754760742188	-980.958923339844	-447.2987670898439	990.2996826171877	-1008.161560058594	-443.690887451172	990.9187622070315	-951.2244262695315	-292.6835937500001	723.8312988281251	-1164.74560546875	-224.1319580078126	674.2063598632814	-1157.458618164063	-186.1497192382813	698.7502441406251	-1144.619384765625	-222.0415496826172	614.6171264648439	-1141.708984375	-145.5552368164063	488.6903076171876	-1108.067993164063	-149.9428100585938	493.4971313476564	-988.8624267578127	-175.0261383056641	324.4133300781251	-1014.963500976563	-212.4085235595704	281.8482971191407	-1083.40478515625	-185.1916809082032	273.7172241210938	-1043.691650390625	-230.9261322021485	211.9225311279297	-1008.518005371094	-320.3820495605469	118.0008697509766	-1055.101684570313	-300.4911499023438	127.4570465087891	-966.8811645507815	-387.7232055664064	95.35159301757814	-1006.781494140625	-180.9600067138672	57.03088378906251	-981.3012695312502	-178.2401428222657	64.76692199707033	-1027.5771484375	-213.9264678955079	53.75888442993165	-1076.031494140625	-362.1538391113282	649.9674072265626	-812.0355224609377	-312.0956115722657	603.2416992187501	-814.9617309570315	-281.0077819824219	609.2562866210939	-823.068054199219	-326.3513488769532	521.2502441406251	-833.9063720703127	-340.1844177246094	442.6569824218751	-855.5791015625002	-343.2897033691407	439.9617614746095	-971.415466308594	-430.8411560058595	353.5661010742188	-886.492614746094	-524.7216186523439	404.5195617675782	-856.4908447265627	-516.0078125000001	359.4172058105469	-867.501403808594	-558.1692504882814	332.8960266113282	-896.5963134765627	-726.2969970703126	351.0870666503907	-901.7044067382815	-768.2718505859377	391.1435852050782	-961.258239746094	-725.6499633789064	186.3650360107422	-961.579040527344	-733.1361083984376	177.9767303466797	-923.6197509765627	-772.5256958007815	212.7616271972657	-881.6160888671877	-701.8994140625001	326.7308959960938	-981.3721313476565	298.6004028320313	1451.125	-1015.606567382813	283.9067687988282	1419.84130859375	-1107.744262695313	-340.2369384765626	442.5337829589845	-855.5786743164065	-343.0971069335938	439.8736572265626	-971.297302246094	
